<svg xmlns="http://www.w3.org/2000/svg" viewBox="0 0 24 24" fill="none" stroke="currentColor" stroke-width="1.5" stroke-linecap="round" stroke-linejoin="round">
  <!-- Brain outline -->
  <path d="M12 2C8.5 2 5.5 4.5 5 8c-1.5.5-3 2-3 4 0 2.5 2 4 4 4h1"/>
  <path d="M12 2c3.5 0 6.5 2.5 7 6 1.5.5 3 2 3 4 0 2.5-2 4-4 4h-1"/>
  <path d="M8 16v2a4 4 0 0 0 8 0v-2"/>
  <!-- Neural connections - the "memory" visual -->
  <circle cx="9" cy="7" r="1"/>
  <circle cx="15" cy="7" r="1"/>
  <circle cx="12" cy="11" r="1"/>
  <circle cx="9" cy="14" r="1"/>
  <circle cx="15" cy="14" r="1"/>
  <line x1="9" y1="7" x2="12" y2="11"/>
  <line x1="15" y1="7" x2="12" y2="11"/>
  <line x1="12" y1="11" x2="9" y2="14"/>
  <line x1="12" y1="11" x2="15" y2="14"/>
  <line x1="9" y1="7" x2="15" y2="7"/>
</svg>
